<?xml version="1.0" standalone="no"?><!DOCTYPE svg PUBLIC "-//W3C//DTD SVG 1.1//EN" "http://www.w3.org/Graphics/SVG/1.1/DTD/svg11.dtd"><svg t="1611789079447" class="icon" viewBox="0 0 1024 1024" version="1.1" xmlns="http://www.w3.org/2000/svg" p-id="3092" xmlns:xlink="http://www.w3.org/1999/xlink" width="16" height="16"><defs><style type="text/css"></style></defs><path d="M682.666667 85.333333l256 256H768c-56.8832 0-85.333333-28.450133-85.333333-85.333333V85.333333z m85.333333 682.666667v85.333333c0 56.8832-28.450133 85.333333-85.333333 85.333334H170.666667c-56.8832 0-85.333333-28.450133-85.333334-85.333334V341.333333c0-56.8832 28.450133-85.333333 85.333334-85.333333h85.333333v426.666667c0 56.8832 28.450133 85.333333 85.333333 85.333333h426.666667z" p-id="3093"></path><path d="M682.666667 955.733333H170.666667c-66.030933 0-102.4-36.369067-102.4-102.4V341.333333c0-66.030933 36.369067-102.4 102.4-102.4h68.266666v-68.266666c0-66.030933 36.369067-102.4 102.4-102.4h341.384534a16.861867 16.861867 0 0 1 12.014933 5.000533l256 256a16.9472 16.9472 0 0 1 5.000533 12.014933V682.666667c0 66.030933-36.369067 102.4-102.4 102.4h-68.266666v68.266666c0 66.030933-36.369067 102.4-102.4 102.4zM170.666667 273.066667c-47.223467 0-68.266667 21.0432-68.266667 68.266666v512c0 47.223467 21.0432 68.266667 68.266667 68.266667h512c47.223467 0 68.266667-21.0432 68.266666-68.266667v-68.266666H341.333333c-66.030933 0-102.4-36.369067-102.4-102.4V273.066667h-68.266666z m597.333333 477.866666h85.333333c47.223467 0 68.266667-21.0432 68.266667-68.266666V358.4h-153.6c-66.030933 0-102.4-36.369067-102.4-102.4V102.4H341.333333c-47.223467 0-68.266667 21.0432-68.266666 68.266667v512c0 47.223467 21.0432 68.266667 68.266666 68.266666h426.666667zM699.733333 126.532267V256c0 47.223467 21.0432 68.266667 68.266667 68.266667h129.467733L699.733333 126.532267z" p-id="3094"></path></svg>