<?xml version="1.0" standalone="no"?><!DOCTYPE svg PUBLIC "-//W3C//DTD SVG 1.1//EN" "http://www.w3.org/Graphics/SVG/1.1/DTD/svg11.dtd"><svg t="1611065164857" class="icon" viewBox="0 0 1024 1024" version="1.1" xmlns="http://www.w3.org/2000/svg" p-id="5911" xmlns:xlink="http://www.w3.org/1999/xlink" width="16" height="16"><defs><style type="text/css"></style></defs><path d="M865.1 390.5h-11.8L568.8 146.3c2.6-6.7 4-14 4-21.6 0-33.6-27.2-60.8-60.8-60.8s-60.8 27.2-60.8 60.8c0 7.6 1.4 14.9 4 21.6L170.7 390.5h-11.8c-50.3 0-91.1 40.8-91.1 91.2v387.2c0 50.3 40.8 91.1 91.1 91.1h706.2c50.3 0 91.1-40.8 91.1-91.1V481.7c0-50.4-40.8-91.2-91.1-91.2zM479.4 176c9.4 6 20.6 9.5 32.5 9.5 12 0 23.1-3.5 32.6-9.5l256.6 214.5H222.8L479.4 176z m408.5 670.1c0 25.2-20.4 45.6-45.6 45.6H181.7c-25.2 0-45.6-20.4-45.6-45.6V504.4c0-25.2 20.4-45.5 45.6-45.5h660.6c25.2 0 45.6 20.4 45.6 45.5v341.7z" fill="#040000" p-id="5912"></path></svg>