<?xml version="1.0" standalone="no"?><!DOCTYPE svg PUBLIC "-//W3C//DTD SVG 1.1//EN" "http://www.w3.org/Graphics/SVG/1.1/DTD/svg11.dtd"><svg t="1611065174696" class="icon" viewBox="0 0 1024 1024" version="1.1" xmlns="http://www.w3.org/2000/svg" p-id="6041" xmlns:xlink="http://www.w3.org/1999/xlink" width="16" height="16"><defs><style type="text/css"></style></defs><path d="M410.368 810.666667l-73.536 147.072a42.666667 42.666667 0 0 1-76.330667-38.144L314.965333 810.666667H85.333333a42.666667 42.666667 0 0 1-42.666666-42.666667V170.666667a42.666667 42.666667 0 0 1 42.666666-42.666667h384V85.333333a42.666667 42.666667 0 1 1 85.333334 0v42.666667h384a42.666667 42.666667 0 0 1 42.666666 42.666667v597.333333a42.666667 42.666667 0 0 1-42.666666 42.666667H709.034667l54.464 108.928a42.666667 42.666667 0 0 1-76.330667 38.144L613.632 810.666667h-203.264z m-27.221333-85.333334H896V213.333333H128v512h255.146667z" p-id="6042"></path></svg>