<?xml version="1.0" standalone="no"?><!DOCTYPE svg PUBLIC "-//W3C//DTD SVG 1.1//EN" "http://www.w3.org/Graphics/SVG/1.1/DTD/svg11.dtd"><svg t="1611064927485" class="icon" viewBox="0 0 1024 1024" version="1.1" xmlns="http://www.w3.org/2000/svg" p-id="1793" width="16" height="16" xmlns:xlink="http://www.w3.org/1999/xlink"><defs><style type="text/css"></style></defs><path d="M511.241209 601.530694c-25.352024 0-46.705916-8.352332-66.014962-17.406627L58.414584 411.370165l-0.529015-0.27468a102.171099 102.171099 0 0 1-55.149809-88.508271c-1.536178-39.442134 17.101426-76.473181 48.679549-96.646963l0.732482-0.467974 0.773176-0.406935L443.161054 20.102568c54.600447-27.173056 92.750564-26.837335 140.728151 1.302191L969.378331 223.610551c33.378809 18.312056 53.27791 55.760211 51.884159 97.725339-1.383578 40.489991-22.381402 74.926829-54.783568 89.922368l-0.24416 0.111907-387.818827 173.20153c-23.419085 10.163191-43.806507 16.958999-67.174726 16.958999z m-435.094451-226.866028l386.221609 172.469048c15.076926 7.121355 31.425523 13.632308 48.832149 13.632309 16.368943 0 31.608643-5.178243 50.866822-13.530575l387.452586-173.008236c18.312056-8.535453 30.194546-29.309463 31.049108-54.24438 0.854563-26.450748-10.875327-49.646019-30.642174-60.572212L564.081664 57.031881l-0.437454-0.264507c-35.993363-21.211465-59.880423-21.292852-102.120233-0.284855L72.697988 260.722984c-19.064885 12.574278-30.255586 35.606776-29.23825 60.470479v0.427281a61.457295 61.457295 0 0 0 32.68702 53.043922z" fill="#999999" p-id="1794"></path><path d="M1019.583885 492.207719a20.438289 20.438289 0 0 0-26.928896-10.254751l-476.113457 213.528747-485.188098-217.608266a20.375214 20.375214 0 1 0-16.674144 37.183647L466.76326 717.802076l49.788446 22.381402 49.778272-22.381402 442.999156-198.675634a20.417942 20.417942 0 0 0 10.254751-26.918723z" fill="#999999" p-id="1795"></path><path d="M1019.583885 634.136327a20.428116 20.428116 0 0 0-26.928896-10.224231l-476.113457 213.518573L31.353434 619.84275a20.375214 20.375214 0 1 0-16.674144 37.183647L466.76326 859.740857l49.788446 22.381402 49.778272-22.381402L1009.329134 661.065223a20.438289 20.438289 0 0 0 10.254751-26.928896z" fill="#999999" p-id="1796"></path><path d="M1019.583885 776.075108a20.448463 20.448463 0 0 0-26.928896-10.254751l-476.113457 213.528746L31.353434 761.751011a20.356902 20.356902 0 1 0-16.674144 37.142954l452.08397 202.755153 49.788446 22.330535 49.778272-22.330535 442.999156-198.685808a20.438289 20.438289 0 0 0 10.254751-26.888202z" fill="#999999" p-id="1797"></path></svg>