<?xml version="1.0" standalone="no"?><!DOCTYPE svg PUBLIC "-//W3C//DTD SVG 1.1//EN" "http://www.w3.org/Graphics/SVG/1.1/DTD/svg11.dtd"><svg t="1611064867595" class="icon" viewBox="0 0 1024 1024" version="1.1" xmlns="http://www.w3.org/2000/svg" p-id="1567" width="16" height="16" xmlns:xlink="http://www.w3.org/1999/xlink"><defs><style type="text/css"></style></defs><path d="M921.7536 661.3504c0 28.2624-23.04 55.4496-51.3024 55.4496h-51.0976V303.104c0-56.6272-46.08-98.304-102.656-98.304H307.3536V149.3504C307.3536 121.088 330.1888 102.4 358.4 102.4h512c28.2624 0 51.3024 18.688 51.3024 46.9504v512z m-204.8 209.0496a51.2 51.2 0 0 1-51.2 51.2h-512a51.2 51.2 0 0 1-51.2-51.2V358.4a51.2 51.2 0 0 1 51.2-51.2h512a51.2 51.2 0 0 1 51.2 51.2v512z m204.544-870.4H307.456C250.7776 0 204.9536 41.6768 204.9536 98.304V204.8H102.656C45.9776 204.8 0.1536 246.4768 0.1536 303.104v614.0928C0.1536 973.824 45.9776 1024 102.656 1024h614.0416c56.6272 0 102.656-50.176 102.656-106.8032V819.2h102.144c56.6272 0 102.656-50.176 102.656-106.8032V98.304c0-56.6272-46.08-98.304-102.656-98.304z" p-id="1568"></path></svg>