<?xml version="1.0" standalone="no"?><!DOCTYPE svg PUBLIC "-//W3C//DTD SVG 1.1//EN" "http://www.w3.org/Graphics/SVG/1.1/DTD/svg11.dtd"><svg t="1611065008667" class="icon" viewBox="0 0 1024 1024" version="1.1" xmlns="http://www.w3.org/2000/svg" p-id="3051" xmlns:xlink="http://www.w3.org/1999/xlink" width="16" height="16"><defs><style type="text/css"></style></defs><path d="M857.367377 904.378575 166.632623 904.378575c-26.01142 0-47.094598-21.045315-47.094598-47.00864L119.538025 401.659963 119.538025 276.305977 119.538025 166.623925c0-25.963325 21.084201-47.004547 47.094598-47.004547L778.381441 119.619378l125.586277 126.331243 0.49221 611.420337C904.459928 883.33326 883.377774 904.378575 857.367377 904.378575zM747.475548 246.272963c0-25.958208-21.084201-47.004547-47.094598-47.004547L292.222993 199.268416c-26.01142 0-47.099714 21.046339-47.099714 47.004547l0 141.021827c0 25.963325 21.088294 47.00864 47.099714 47.00864l408.156934 0c26.010397 0 47.094598-21.045315 47.094598-47.00864L747.474524 246.272963zM794.574239 496.979912 229.425761 496.979912l0 360.391047 565.148477 0L794.574239 496.979912zM731.775984 606.665033 292.222993 606.665033 292.222993 575.326281l439.552991 0L731.775984 606.665033zM731.775984 669.340491 292.222993 669.340491 292.222993 638.003785l439.552991 0L731.775984 669.340491zM731.775984 732.017996 292.222993 732.017996 292.222993 700.68129l439.552991 0L731.775984 732.017996zM731.775984 794.6955 292.222993 794.6955l0-31.338752 439.552991 0L731.775984 794.6955zM559.096133 230.605122l94.189196 0 0 172.362626-94.189196 0L559.096133 230.605122z" p-id="3052"></path></svg>