<?xml version="1.0" standalone="no"?><!DOCTYPE svg PUBLIC "-//W3C//DTD SVG 1.1//EN" "http://www.w3.org/Graphics/SVG/1.1/DTD/svg11.dtd"><svg t="1611270727952" class="icon" viewBox="0 0 1087 1024" version="1.1" xmlns="http://www.w3.org/2000/svg" p-id="7671" xmlns:xlink="http://www.w3.org/1999/xlink" width="16.984375" height="16"><defs><style type="text/css"></style></defs><path d="M162.466959 511.972485c52.982529 0 88.240227-35.257698 88.240227-88.240227l-0.255954-27.835025s-13.117655-78.897897 92.143529-78.897897L768.822573 319.94281v112.555881a53.110506 53.110506 0 0 0 74.866618 0l164.64257-164.578582a53.110506 53.110506 0 0 0 0-74.866617L843.689191 18.68466a53.110506 53.110506 0 0 0-74.866618 0v118.058897c-10.302158-3.007462-412.918191-4.735154-412.918191-4.735154-237.461554 0-289.420266 155.428217-289.420266 218.009031v65.972208a95.982843 95.982843 0 0 0 95.982843 95.982843zM927.83415 514.596016c-52.982529 0-95.982843 37.36932-95.982843 90.35185l0.127977 61.237053c-2.879485 22.843917-41.272623 37.753252-97.582557 37.753252H315.975519l-0.127977-99.758168a53.110506 53.110506 0 0 0-74.866617 0l-164.578582 164.578581a53.110506 53.110506 0 0 0 0 74.866618l164.578582 164.578582a52.854552 52.854552 0 0 0 74.866617 0l0.127977-118.442829h418.421208c237.461554 0 289.420266-156.260069 289.420266-218.904871V604.883877c0-52.918541-43.000314-90.287861-95.982843-90.287861z" fill="#434343" p-id="7672"></path></svg>