<?xml version="1.0" standalone="no"?><!DOCTYPE svg PUBLIC "-//W3C//DTD SVG 1.1//EN" "http://www.w3.org/Graphics/SVG/1.1/DTD/svg11.dtd"><svg t="1611270872686" class="icon" viewBox="0 0 1024 1024" version="1.1" xmlns="http://www.w3.org/2000/svg" p-id="13502" xmlns:xlink="http://www.w3.org/1999/xlink" width="16" height="16"><defs><style type="text/css"></style></defs><path d="M487.862857 230.016v645.632c0 12.891429 11.245714 23.149714 24.137143 23.149714 12.891429 0 24.466286-10.258286 24.466286-23.149714V230.016c0-12.891429-11.574857-22.820571-24.466286-22.820571-12.891429 0-24.137143 9.929143-24.137143 22.820571zM76.068571 746.642286H311.588571c50.596571 0 76.068571-24.466286 76.068572-75.410286V434.102857c0-50.285714-25.472-75.081143-76.068572-75.081143H76.068571C25.472 359.003429 0 383.817143 0 434.102857v237.165714c0 50.925714 25.472 75.392 76.068571 75.392z m636.361143 0H947.931429c50.596571 0 76.068571-24.466286 76.068571-75.410286V434.102857c0-50.285714-25.472-75.081143-76.068571-75.081143H712.429714c-50.596571 0-76.068571 24.813714-76.068571 75.081143v237.165714c0 50.925714 25.472 75.392 76.068571 75.392z m3.968-49.938286c-19.510857 0-30.08-9.929143-30.08-30.427429v-226.56c0-20.845714 10.569143-30.756571 30.08-30.756571h227.565715c19.510857 0 30.098286 9.910857 30.098285 30.756571v226.56c0 20.498286-10.587429 30.427429-30.098285 30.427429z" p-id="13503"></path></svg>