<?xml version="1.0" standalone="no"?><!DOCTYPE svg PUBLIC "-//W3C//DTD SVG 1.1//EN" "http://www.w3.org/Graphics/SVG/1.1/DTD/svg11.dtd"><svg t="1611789216681" class="icon" viewBox="0 0 1024 1024" version="1.1" xmlns="http://www.w3.org/2000/svg" p-id="7221" xmlns:xlink="http://www.w3.org/1999/xlink" width="16" height="16"><defs><style type="text/css"></style></defs><path d="M240.47 540.79L512 269.25l271.53 271.54a32 32 0 0 0 45.25-45.25L534.63 201.38a32 32 0 0 0-45.26 0L195.22 495.54a32 32 0 0 0 45.25 45.25z" p-id="7222"></path><path d="M534.63 483.22a32 32 0 0 0-45.26 0L195.22 777.38a32 32 0 0 0 0 45.25 32 32 0 0 0 45.25 0L512 551.1l271.53 271.53a32 32 0 0 0 45.25 0 32 32 0 0 0 0-45.25z" p-id="7223"></path></svg>